<?xml version="1.0" standalone="no"?>
<svg viewBox="0 0 200 200" xmlns="http://www.w3.org/2000/svg">
  <path fill="#FFC0BE" d="M43.8,-76.2C55,-69.4,61,-54.1,66.7,-39.9C72.4,-25.8,77.7,-12.9,79.9,1.3C82.1,15.4,81.1,30.9,75,44.3C69,57.7,57.7,69.1,44.4,74.1C31,79.1,15.5,77.7,-0.6,78.7C-16.6,79.7,-33.3,83.1,-46.1,77.8C-59,72.5,-68,58.5,-73.5,44.1C-78.9,29.7,-80.8,14.8,-82.1,-0.7C-83.3,-16.3,-84,-32.6,-78,-46.1C-72.1,-59.7,-59.6,-70.6,-45.5,-75.7C-31.4,-80.8,-15.7,-80.2,0.3,-80.7C16.3,-81.3,32.6,-83,43.8,-76.2Z" transform="translate(100 100)" />
</svg>
