<!--?xml version="1.0" standalone="no"?-->
              <svg id="sw-js-blob-svg" viewBox="0 0 100 100" xmlns="http://www.w3.org/2000/svg" version="1.1">
                    <defs> 
                        <linearGradient id="sw-gradient" x1="0" x2="1" y1="1" y2="0">
                            <stop id="stop1" stop-color="rgba(255, 255, 255, 1)" offset="0%"></stop>
                            <stop id="stop2" stop-color="rgba(255, 255, 255, 1)" offset="100%"></stop>
                        </linearGradient>
                    </defs>
                <path fill="url(#sw-gradient)" d="M19.5,-36.5C24.2,-31,26.1,-23.6,30,-17.2C33.8,-10.8,39.5,-5.4,42,1.5C44.6,8.3,43.9,16.7,39.1,21.3C34.2,25.9,25.1,26.8,17.9,29C10.7,31.2,5.3,34.6,-0.3,35.1C-5.9,35.6,-11.8,33.1,-18.7,30.8C-25.7,28.4,-33.8,26.3,-38.1,21.2C-42.4,16.1,-43,8.1,-41.3,1C-39.7,-6.1,-35.8,-12.3,-32,-18.3C-28.3,-24.4,-24.6,-30.4,-19.3,-35.5C-14,-40.6,-7,-44.7,0.2,-45C7.4,-45.4,14.8,-41.9,19.5,-36.5Z" width="100%" height="100%" transform="translate(50 50)" stroke-width="0" style="transition: all 0.3s ease 0s;" stroke="url(#sw-gradient)"></path>
              </svg>