<!--?xml version="1.0" standalone="no"?-->
              <svg id="sw-js-blob-svg" viewBox="0 0 100 100" xmlns="http://www.w3.org/2000/svg" version="1.1">
                    <defs> 
                        <linearGradient id="sw-gradient" x1="0" x2="1" y1="1" y2="0">
                            <stop id="stop1" stop-color="rgba(255, 255, 255, 1)" offset="0%"></stop>
                            <stop id="stop2" stop-color="rgba(255, 255, 255, 1)" offset="100%"></stop>
                        </linearGradient>
                    </defs>
                <path fill="url(#sw-gradient)" d="M25.3,-30.1C32.5,-24.1,37.8,-15.8,38.3,-7.5C38.8,0.8,34.6,9.1,29.4,15.8C24.2,22.5,18,27.6,10.7,30.9C3.4,34.2,-5.1,35.9,-13.3,34C-21.4,32.1,-29.1,26.7,-32,19.5C-34.8,12.4,-32.8,3.5,-31.6,-6C-30.5,-15.6,-30.3,-25.7,-25.2,-32C-20,-38.4,-10,-40.9,-0.5,-40.3C9,-39.7,18.1,-36,25.3,-30.1Z" width="100%" height="100%" transform="translate(50 50)" stroke-width="0" style="transition: all 0.3s ease 0s;" stroke="url(#sw-gradient)"></path>
              </svg>